# Blender v3.2.2 OBJ File: 'soccerrobot.blend'
# www.blender.org
o field.002_Cube.003
v 0.500000 -0.000761 0.235258
v 0.500000 0.149239 0.235258
v 0.500000 -0.000761 0.000277
v 0.500000 0.149239 0.000277
v -0.500000 -0.000761 0.235258
v -0.500000 0.149239 0.235258
v -0.500000 -0.000761 0.000278
v -0.500000 0.149239 0.000278
v 0.453627 0.149239 0.191647
v 0.453627 0.149239 0.000469
v -0.453627 0.149239 0.000469
v -0.453627 0.149239 0.191647
v 0.453627 -0.000761 0.191647
v 0.453627 -0.000761 0.000469
v -0.453627 -0.000761 0.000469
v -0.453627 -0.000761 0.191647
vt 0.444893 0.106655
vt 0.387833 0.049595
vt 0.387833 0.106655
vt 0.559013 0.106655
vt 0.501953 0.049595
vt 0.501953 0.106655
vt 0.616074 0.106655
vt 0.559013 0.049595
vt 0.444893 0.049595
vt 0.444893 0.049595
vt 0.616074 0.049595
vt 0.559013 0.049595
vt 0.559013 0.049595
vt 0.501953 0.049595
vt 0.387833 0.049595
vt 0.501953 0.049595
vt 0.444893 0.049595
vt 0.616074 0.049595
vt 0.616074 0.049595
vt 0.387833 0.049595
vn 1.0000 0.0000 -0.0000
vn -1.0000 0.0000 0.0000
vn 0.0000 0.0000 1.0000
vn -0.0041 0.0000 -1.0000
vn 0.0000 1.0000 0.0000
vn 0.0041 0.0000 -1.0000
vn -0.0000 0.0000 -1.0000
s off
f 3/1/1 2/2/1 1/3/1
f 5/4/2 8/5/2 7/6/2
f 1/7/3 6/8/3 5/4/3
f 3/1/4 10/9/4 4/10/4
f 2/11/5 12/12/5 6/8/5
f 16/13/1 11/14/1 12/12/1
f 12/12/5 8/5/5 6/8/5
f 4/10/5 9/15/5 2/2/5
f 8/5/6 15/16/6 7/6/6
f 14/17/2 9/15/2 10/9/2
f 13/18/7 12/12/7 9/19/7
f 3/1/1 4/10/1 2/2/1
f 5/4/2 6/8/2 8/5/2
f 1/7/3 2/11/3 6/8/3
f 3/1/4 14/17/4 10/9/4
f 2/11/5 9/19/5 12/12/5
f 16/13/1 15/16/1 11/14/1
f 12/12/5 11/14/5 8/5/5
f 4/10/5 10/9/5 9/15/5
f 8/5/6 11/14/6 15/16/6
f 14/17/2 13/20/2 9/15/2
f 13/18/7 16/13/7 12/12/7
