# Blender 3.6.5
# www.blender.org
mtllib goalborders_diva.mtl
o field.002_Cube.003
v 0.950000 -0.000761 0.235258
v 0.950000 0.149239 0.235258
v 0.950000 -0.000761 0.000277
v 0.950000 0.149239 0.000277
v -0.950000 -0.000761 0.235258
v -0.950000 0.149239 0.235258
v -0.950000 -0.000761 0.000278
v -0.950000 0.149239 0.000278
v 0.900118 0.149239 0.191647
v 0.900118 0.149239 0.000469
v -0.899918 0.149239 0.000469
v -0.899918 0.149239 0.191647
v 0.900118 -0.000761 0.191647
v 0.900118 -0.000761 0.000469
v -0.899918 -0.000761 0.000469
v -0.899918 -0.000761 0.191647
vn 1.0000 -0.0000 -0.0000
vn -1.0000 -0.0000 -0.0000
vn -0.0000 -0.0000 1.0000
vn -0.0038 -0.0000 -1.0000
vn -0.0000 1.0000 -0.0000
vn 0.0038 -0.0000 -1.0000
vn -0.0000 -0.0000 -1.0000
vt 0.444893 0.106655
vt 0.387833 0.049595
vt 0.387833 0.106655
vt 0.559013 0.106655
vt 0.501953 0.049595
vt 0.501953 0.106655
vt 0.616074 0.106655
vt 0.559013 0.049595
vt 0.444893 0.049595
vt 0.616074 0.049595
s 0
f 3/1/1 2/2/1 1/3/1
f 5/4/2 8/5/2 7/6/2
f 1/7/3 6/8/3 5/4/3
f 3/1/4 10/9/4 4/9/4
f 2/10/5 12/8/5 6/8/5
f 16/8/1 11/5/1 12/8/1
f 12/8/5 8/5/5 6/8/5
f 4/9/5 9/2/5 2/2/5
f 8/5/6 15/5/6 7/6/6
f 14/9/2 9/2/2 10/9/2
f 13/10/7 12/8/7 9/10/7
f 3/1/1 4/9/1 2/2/1
f 5/4/2 6/8/2 8/5/2
f 1/7/3 2/10/3 6/8/3
f 3/1/4 14/9/4 10/9/4
f 2/10/5 9/10/5 12/8/5
f 16/8/1 15/5/1 11/5/1
f 12/8/5 11/5/5 8/5/5
f 4/9/5 10/9/5 9/2/5
f 8/5/6 11/5/6 15/5/6
f 14/9/2 13/2/2 9/2/2
f 13/10/7 16/8/7 12/8/7
