# Blender v3.2.2 OBJ File: 'soccerrobot.blend'
# www.blender.org
o Plane
v -0.035000 -0.000000 -0.050000
v 0.035000 0.000000 -0.050000
v -0.035000 -0.000000 0.050000
v 0.035000 0.000000 0.050000
v -0.035000 0.000828 -0.050000
v 0.035000 0.000828 -0.050000
v -0.035000 0.000828 0.050000
v 0.035000 0.000828 0.050000
vt 0.973728 0.936535
vt 0.026272 0.063465
vt 0.026272 0.936535
vt 0.026272 0.063465
vt 0.973728 0.936535
vt 0.026272 0.936535
vt 0.973728 0.063465
vt 0.973728 0.063465
vn 0.0000 -1.0000 0.0000
vn -0.0000 1.0000 -0.0000
vn 1.0000 0.0000 -0.0000
vn -1.0000 0.0000 0.0000
vn 0.0000 0.0000 1.0000
vn -0.0000 0.0000 -1.0000
s off
f 2/1/1 3/2/1 1/3/1
f 7/4/2 6/5/2 5/6/2
f 2/1/3 8/7/3 4/8/3
f 3/2/4 5/6/4 1/3/4
f 4/8/5 7/4/5 3/2/5
f 1/3/6 6/5/6 2/1/6
f 2/1/1 4/8/1 3/2/1
f 7/4/2 8/7/2 6/5/2
f 2/1/3 6/5/3 8/7/3
f 3/2/4 7/4/4 5/6/4
f 4/8/5 8/7/5 7/4/5
f 1/3/6 5/6/6 6/5/6
